<svg id="Layer_1" data-name="Layer 1" xmlns="http://www.w3.org/2000/svg" viewBox="0 0 3871.76 3006.71"><defs><style>.cls-1,.cls-10,.cls-2,.cls-4,.cls-6,.cls-7,.cls-8,.cls-9{fill-rule:evenodd;}.cls-2{fill:#83b1af;}.cls-3,.cls-4{fill:#289ccd;}.cls-5,.cls-8{fill:#882e38;}.cls-6{fill:#fedcc0;}.cls-7{fill:#f3b387;}.cls-9{fill:#566467;}.cls-10{fill:#363b3e;}</style></defs><path class="cls-1" d="M2642.62,3006.71H1248.28a45.43,45.43,0,0,1-45.37-45.4v-1162a45.41,45.41,0,0,1,45.37-45.4H2642.62a45.45,45.45,0,0,1,45.4,45.4v1162a45.41,45.41,0,0,1-45.4,45.43Zm-1349-90.8H2597.22V1844.75H1293.66Z"/><path class="cls-1" d="M2440.52,1844.75H1450.41a45.41,45.41,0,0,1-45.38-45.37V1106a45.4,45.4,0,0,1,45.38-45.39h990.11a45.41,45.41,0,0,1,45.37,45.39v693.39a45.4,45.4,0,0,1-45.37,45.37ZM1495.8,1754h899.29V1151.34H1495.8Z"/><path class="cls-1" d="M2239,1151.34H1652.49a45.41,45.41,0,0,1-44.78-52.82l101.07-606.38a45.39,45.39,0,0,1,44.75-37.92h383.78a45.37,45.37,0,0,1,44.75,37.92L2284.37,1106a45.34,45.34,0,0,1-45.4,45.34Zm-532.92-90.79h478.72L2098.83,545H1792Z"/><path class="cls-1" d="M1945.46,545a45.4,45.4,0,0,1-45.39-45.38V44.81c0-59.75,90.76-59.75,90.76,0V499.59A45.37,45.37,0,0,1,1945.46,545Z"/><path class="cls-1" d="M1248.28,3006.71H243.12a45.43,45.43,0,0,1-45.38-45.4V476.74a45.43,45.43,0,0,1,60.45-42.81l1005.16,353.7a45.41,45.41,0,0,1,30.31,42.8V2961.28a45.41,45.41,0,0,1-45.38,45.43Zm-959.8-90.8h914.38V862.61L288.48,540.81Z"/><path class="cls-1" d="M3628.68,3006.71H2642.62a45.44,45.44,0,0,1-45.37-45.4v-1575a45.4,45.4,0,0,1,45.37-45.38h986.06a45.39,45.39,0,0,1,45.37,45.38v1575a45.4,45.4,0,0,1-45.37,45.43ZM2688,2915.91h895.23V1431.67H2688Z"/><path class="cls-1" d="M646.92,1238.82c-307.17,0-259.73,47.43-259.73-259.76a45.42,45.42,0,0,1,45.38-45.38c307.17,0,259.74-47.45,259.74,259.72a45.39,45.39,0,0,1-45.39,45.42ZM478,1148H601.54V1024.45H478Z"/><path class="cls-1" d="M1058.8,1238.82c-307.18,0-259.75,47.43-259.75-259.76a45.42,45.42,0,0,1,45.4-45.38c307.18,0,259.73-47.45,259.73,259.72a45.36,45.36,0,0,1-45.38,45.42Zm-169-90.79h123.59V1024.45H889.83Z"/><path class="cls-1" d="M646.92,1616.82c-307.15,0-259.73,47.43-259.73-259.7a45.4,45.4,0,0,1,45.38-45.39c307.17,0,259.74-47.43,259.74,259.72a45.38,45.38,0,0,1-45.39,45.37Zm-169-90.77H601.54V1402.5H478Z"/><path class="cls-1" d="M1058.8,1616.82c-307.17,0-259.75,47.43-259.75-259.7a45.41,45.41,0,0,1,45.4-45.39c307.15,0,259.73-47.44,259.73,259.72a45.36,45.36,0,0,1-45.38,45.37Zm-169-90.77h123.59V1402.5H889.83Z"/><path class="cls-1" d="M646.92,1994.89c-307.18,0-259.73,47.4-259.73-259.78a45.41,45.41,0,0,1,45.38-45.37c307.18,0,259.74-47.43,259.74,259.75a45.42,45.42,0,0,1-45.39,45.4Zm-169-90.77H601.54V1780.54H478Z"/><path class="cls-1" d="M1058.8,1994.89c-307.2,0-259.75,47.43-259.75-259.78a45.41,45.41,0,0,1,45.4-45.37c307.18,0,259.73-47.43,259.73,259.75a45.39,45.39,0,0,1-45.38,45.4Zm-169-90.77h123.59V1780.54H889.83Z"/><path class="cls-1" d="M646.92,2372.93c-307.18,0-259.73,47.43-259.73-259.75a45.42,45.42,0,0,1,45.38-45.41c307.18,0,259.74-47.4,259.74,259.79a45.41,45.41,0,0,1-45.39,45.37Zm-169-90.8H601.54V2158.58l-123.58,0Z"/><path class="cls-1" d="M1058.8,2372.93c-307.2,0-259.75,47.43-259.75-259.75a45.43,45.43,0,0,1,45.4-45.41c307.18,0,259.73-47.4,259.73,259.79a45.38,45.38,0,0,1-45.38,45.37Zm-169-90.8h123.59V2158.58l-123.59,0Z"/><path class="cls-1" d="M646.92,2751c-307.18,0-259.73,47.4-259.73-259.78a45.39,45.39,0,0,1,45.38-45.37c307.18,0,259.74-47.4,259.74,259.78A45.42,45.42,0,0,1,646.92,2751Zm-169-90.8H601.54V2536.58H478Z"/><path class="cls-1" d="M1058.8,2751c-307.2,0-259.75,47.43-259.75-259.78a45.4,45.4,0,0,1,45.4-45.37c307.18,0,259.73-47.4,259.73,259.78A45.39,45.39,0,0,1,1058.8,2751Zm-169-90.8h123.59V2536.58H889.83Z"/><path class="cls-1" d="M2182.43,1616.54h-474a45.42,45.42,0,0,1-45.39-45.4v-237a45.42,45.42,0,0,1,45.39-45.38h474a45.42,45.42,0,0,1,45.4,45.38v237a45.45,45.45,0,0,1-45.43,45.4Zm-428.58-90.8h383.21V1379.56H1753.85Z"/><path class="cls-1" d="M2217.27,3006.71H1673.61a45.43,45.43,0,0,1-45.39-45.4V2440.52a45.41,45.41,0,0,1,45.39-45.4h543.66a45.41,45.41,0,0,1,45.37,45.4v520.79a45.39,45.39,0,0,1-45.37,45.4ZM1719,2915.91h452.85v-430H1719Z"/><path class="cls-1" d="M2386.56,2283.82H1504.37a45.43,45.43,0,0,1-45.39-45.4v-237a45.42,45.42,0,0,1,45.39-45.4h882.19a45.42,45.42,0,0,1,45.37,45.4v237a45.42,45.42,0,0,1-45.37,45.4ZM1549.75,2193h791.38V2046.78H1549.75Z"/><path class="cls-1" d="M1945.46,2283.82a45.43,45.43,0,0,1-45.39-45.4v-237c0-59.77,90.76-59.74,90.76,0v237A45.4,45.4,0,0,1,1945.46,2283.82Z"/><path class="cls-1" d="M3628.68,2043.37H2995.94a45.42,45.42,0,0,1-45.37-45.4V1706.36a45.39,45.39,0,0,1,45.37-45.37h632.74a45.4,45.4,0,0,1,45.37,45.37V1998a45.42,45.42,0,0,1-45.37,45.4Zm-587.34-90.83h541.91V1751.76H3041.34Z"/><path class="cls-1" d="M3275.36,2686.63H2642.62a45.43,45.43,0,0,1-45.37-45.4V2349.66a45.41,45.41,0,0,1,45.37-45.4h632.74a45.42,45.42,0,0,1,45.37,45.4v291.57a45.42,45.42,0,0,1-45.37,45.4ZM2688,2595.83H3230V2395H2688Z"/><path class="cls-1" d="M3827,3006.71H44.81c-59.75,0-59.75-90.74,0-90.74H3827C3886.69,2916,3886.69,3006.71,3827,3006.71Z"/><path class="cls-1" d="M3462.22,1431.67H2809.07a45.39,45.39,0,0,1-45.37-45.39v-273.2a45.41,45.41,0,0,1,45.37-45.38h653.15a45.41,45.41,0,0,1,45.4,45.38v273.19a45.4,45.4,0,0,1-45.4,45.4Zm-607.75-90.77h562.35V1158.48l-562.35,0Z"/><path class="cls-2" d="M844.45,933.68c307.18,0,259.73-47.45,259.73,259.72a45.36,45.36,0,0,1-45.38,45.42c-307.18,0-259.75,47.43-259.75-259.76a45.42,45.42,0,0,1,45.4-45.38Zm358.46,865.63-.05-936.7L288.48,540.81v2375.1h914.43V1799.31ZM799.05,1357.12c0,307.13-47.42,259.7,259.75,259.7a45.36,45.36,0,0,0,45.38-45.37c0-307.16,47.42-259.72-259.73-259.72a45.41,45.41,0,0,0-45.4,45.39Zm45.4,332.62c307.18,0,259.73-47.43,259.73,259.75a45.39,45.39,0,0,1-45.38,45.4c-307.2,0-259.75,47.43-259.75-259.78a45.41,45.41,0,0,1,45.4-45.37Zm-45.4,423.44a45.43,45.43,0,0,1,45.4-45.41c307.18,0,259.73-47.4,259.73,259.79a45.38,45.38,0,0,1-45.38,45.37c-307.2,0-259.75,47.43-259.75-259.75Zm0,378a45.4,45.4,0,0,1,45.4-45.37c307.18,0,259.73-47.4,259.73,259.78A45.39,45.39,0,0,1,1058.8,2751c-307.2,0-259.75,47.43-259.75-259.78ZM432.57,1311.73c307.17,0,259.74-47.43,259.74,259.72a45.38,45.38,0,0,1-45.39,45.37c-307.15,0-259.73,47.43-259.73-259.7a45.4,45.4,0,0,1,45.38-45.39Zm0,378c307.18,0,259.74-47.43,259.74,259.75a45.42,45.42,0,0,1-45.39,45.4c-307.18,0-259.73,47.4-259.73-259.78a45.41,45.41,0,0,1,45.38-45.37Zm0,378c307.18,0,259.74-47.4,259.74,259.79a45.41,45.41,0,0,1-45.39,45.37c-307.18,0-259.73,47.43-259.73-259.75a45.42,45.42,0,0,1,45.38-45.41Zm0,378c307.18,0,259.74-47.4,259.74,259.78A45.42,45.42,0,0,1,646.92,2751c-307.18,0-259.73,47.4-259.73-259.78a45.39,45.39,0,0,1,45.38-45.37Zm0-1512.13c307.17,0,259.74-47.45,259.74,259.72a45.39,45.39,0,0,1-45.39,45.42c-307.17,0-259.73,47.43-259.73-259.76A45.42,45.42,0,0,1,432.57,933.68Z"/><rect class="cls-3" x="477.96" y="1024.45" width="123.58" height="123.58"/><rect class="cls-3" x="477.96" y="1402.5" width="123.58" height="123.55"/><rect class="cls-3" x="477.96" y="1780.54" width="123.58" height="123.58"/><polygon class="cls-4" points="601.54 2158.58 477.95 2158.54 477.95 2282.13 601.54 2282.13 601.54 2158.58"/><rect class="cls-3" x="477.96" y="2536.58" width="123.58" height="123.58"/><rect class="cls-3" x="889.83" y="2536.58" width="123.58" height="123.58"/><polygon class="cls-4" points="889.83 2282.13 1013.41 2282.13 1013.41 2158.58 889.83 2158.54 889.83 2282.13"/><rect class="cls-3" x="889.83" y="1780.54" width="123.58" height="123.58"/><rect class="cls-3" x="889.83" y="1402.5" width="123.58" height="123.55"/><rect class="cls-3" x="889.83" y="1024.45" width="123.58" height="123.58"/><rect class="cls-5" x="1718.99" y="2485.86" width="452.85" height="430.05"/><path class="cls-6" d="M2217.27,2395.12a45.41,45.41,0,0,1,45.37,45.4v475.39h334.58l0-274.68V2349.66l0-504.91H1293.66V2915.91l334.56.06V2440.52a45.41,45.41,0,0,1,45.39-45.4Zm169.29-111.3H1504.37a45.43,45.43,0,0,1-45.39-45.4v-237a45.42,45.42,0,0,1,45.39-45.4h882.19a45.42,45.42,0,0,1,45.37,45.4v237A45.42,45.42,0,0,1,2386.56,2283.82Z"/><rect class="cls-3" x="1990.83" y="2046.78" width="350.3" height="146.2"/><rect class="cls-3" x="1549.75" y="2046.78" width="350.32" height="146.2"/><rect class="cls-3" x="1753.85" y="1379.56" width="383.21" height="146.19"/><path class="cls-7" d="M1708.47,1288.79h474a45.42,45.42,0,0,1,45.4,45.38v237a45.45,45.45,0,0,1-45.43,45.4h-474a45.42,45.42,0,0,1-45.39-45.4v-237a45.42,45.42,0,0,1,45.39-45.38ZM1495.8,1754h899.29V1151.34H1495.8Z"/><polygon class="cls-8" points="1706.05 1060.55 2184.77 1060.55 2098.83 544.96 1945.46 544.96 1791.97 544.96 1706.05 1060.55"/><rect class="cls-3" x="2688.02" y="2395.02" width="541.94" height="200.81"/><path class="cls-9" d="M2688,2304.26h587.34a45.42,45.42,0,0,1,45.37,45.4v291.57a45.42,45.42,0,0,1-45.37,45.4H2688V2916l895.23-.06V2043.37H2995.94a45.42,45.42,0,0,1-45.37-45.4V1706.36a45.39,45.39,0,0,1,45.37-45.37h587.31V1431.67H2688v872.59Z"/><rect class="cls-3" x="3041.34" y="1751.76" width="541.91" height="200.78"/><polygon class="cls-10" points="2854.47 1340.9 3416.82 1340.9 3416.82 1158.48 2854.47 1158.45 2854.47 1340.9"/></svg>